<svg width="169" height="48" viewBox="0 0 169 48" fill="none" xmlns="http://www.w3.org/2000/svg">
<g clip-path="url(#clip0_15_264)">
<g filter="url(#filter0_d_15_264)">
<path d="M31.5333 11.3666C31.5333 13.6678 29.6678 15.5333 27.3666 15.5333C27.0743 15.5333 26.7891 15.5032 26.5138 15.4459L24.3808 18.975C25.7041 20.1934 26.5333 21.9403 26.5333 23.8809L26.5328 23.9598L26.5326 23.9779L28.6931 24.4126C29.3958 23.1041 30.7773 22.2143 32.3666 22.2143C34.6678 22.2143 36.5333 24.0796 36.5333 26.3809C36.5333 28.6821 34.6678 30.5476 32.3666 30.5476C30.2306 30.5476 28.4701 28.9403 28.2283 26.8693L26.0298 26.4269C25.4553 27.8163 24.4245 28.9691 23.1245 29.6988L23.9496 32.2186L23.9861 32.2181L24.0333 32.2179C26.3345 32.2179 28.2 34.0833 28.2 36.3846C28.2 38.6858 26.3345 40.5513 24.0333 40.5513C21.7321 40.5513 19.8666 38.6858 19.8666 36.3846C19.8666 35.0004 20.5415 33.7739 21.5801 33.0161L20.7526 30.4891C20.4628 30.5276 20.167 30.5476 19.8666 30.5476C17.665 30.5476 15.7126 29.4803 14.4986 27.8349L11.5075 29.2481C11.5245 29.4011 11.5333 29.5566 11.5333 29.7143C11.5333 32.0154 9.6678 33.8809 7.36662 33.8809C5.06543 33.8809 3.19995 32.0154 3.19995 29.7143C3.19995 27.4129 5.06543 25.5476 7.36662 25.5476C8.61275 25.5476 9.73112 26.0946 10.4947 26.9616L13.4185 25.5803C13.2759 25.0378 13.2 24.4681 13.2 23.8809C13.2 22.2681 13.7727 20.7889 14.7258 19.636L13.073 17.7538C12.5967 17.9433 12.0772 18.0475 11.5333 18.0475C9.2321 18.0475 7.36662 16.1821 7.36662 13.8809C7.36662 11.5797 9.2321 9.7142 11.5333 9.7142C13.8345 9.7142 15.7 11.5797 15.7 13.8809C15.7 14.7281 15.4471 15.5162 15.0128 16.174L16.651 18.0396C17.6045 17.5135 18.7006 17.2142 19.8666 17.2142C20.7091 17.2142 21.5151 17.3705 22.2571 17.6556L24.3323 14.2222C23.6301 13.4764 23.2 12.4717 23.2 11.3666C23.2 9.06543 25.0655 7.19995 27.3666 7.19995C29.6678 7.19995 31.5333 9.06543 31.5333 11.3666Z" fill="white"/>
</g>
</g>
<path d="M74.08 35H68.608L59.456 21.144V35H53.984V12.536H59.456L68.608 26.456V12.536H74.08V35ZM98.0465 25.56C98.0465 26.1147 98.0145 26.7013 97.9505 27.32H83.9345C84.0412 29.048 84.6278 30.4027 85.6945 31.384C86.7825 32.344 88.0945 32.824 89.6305 32.824C90.8892 32.824 91.9345 32.536 92.7665 31.96C93.6198 31.3627 94.2172 30.5733 94.5585 29.592H97.6945C97.2252 31.2773 96.2865 32.6533 94.8785 33.72C93.4705 34.7653 91.7212 35.288 89.6305 35.288C87.9665 35.288 86.4732 34.9147 85.1505 34.168C83.8492 33.4213 82.8252 32.3653 82.0785 31C81.3318 29.6133 80.9585 28.0133 80.9585 26.2C80.9585 24.3867 81.3212 22.7973 82.0465 21.432C82.7718 20.0667 83.7852 19.0213 85.0865 18.296C86.4092 17.5493 87.9238 17.176 89.6305 17.176C91.2945 17.176 92.7665 17.5387 94.0465 18.264C95.3265 18.9893 96.3078 19.992 96.9905 21.272C97.6945 22.5307 98.0465 23.96 98.0465 25.56ZM95.0385 24.952C95.0385 23.8427 94.7932 22.8933 94.3025 22.104C93.8118 21.2933 93.1398 20.6853 92.2865 20.28C91.4545 19.8533 90.5265 19.64 89.5025 19.64C88.0305 19.64 86.7718 20.1093 85.7265 21.048C84.7025 21.9867 84.1158 23.288 83.9665 24.952H95.0385ZM108.322 20.312C108.834 19.3093 109.56 18.5307 110.498 17.976C111.458 17.4213 112.621 17.144 113.986 17.144V20.152H113.218C109.954 20.152 108.322 21.9227 108.322 25.464V35H105.41V17.464H108.322V20.312ZM123.78 11.32V35H120.868V11.32H123.78ZM148.263 25.56C148.263 26.1147 148.231 26.7013 148.167 27.32H134.151C134.257 29.048 134.844 30.4027 135.911 31.384C136.999 32.344 138.311 32.824 139.847 32.824C141.105 32.824 142.151 32.536 142.983 31.96C143.836 31.3627 144.433 30.5733 144.775 29.592H147.911C147.441 31.2773 146.503 32.6533 145.095 33.72C143.687 34.7653 141.937 35.288 139.847 35.288C138.183 35.288 136.689 34.9147 135.367 34.168C134.065 33.4213 133.041 32.3653 132.295 31C131.548 29.6133 131.175 28.0133 131.175 26.2C131.175 24.3867 131.537 22.7973 132.263 21.432C132.988 20.0667 134.001 19.0213 135.303 18.296C136.625 17.5493 138.14 17.176 139.847 17.176C141.511 17.176 142.983 17.5387 144.263 18.264C145.543 18.9893 146.524 19.992 147.207 21.272C147.911 22.5307 148.263 23.96 148.263 25.56ZM145.255 24.952C145.255 23.8427 145.009 22.8933 144.519 22.104C144.028 21.2933 143.356 20.6853 142.503 20.28C141.671 19.8533 140.743 19.64 139.719 19.64C138.247 19.64 136.988 20.1093 135.943 21.048C134.919 21.9867 134.332 23.288 134.183 24.952H145.255ZM164.778 35L160.618 28.472L156.618 35H153.578L159.242 26.296L153.578 17.464H156.874L161.034 23.96L165.002 17.464H168.042L162.41 26.136L168.074 35H164.778Z" fill="white"/>
<defs>
<filter id="filter0_d_15_264" x="-16.8" y="-12.8" width="73.3334" height="73.3513" filterUnits="userSpaceOnUse" color-interpolation-filters="sRGB">
<feFlood flood-opacity="0" result="BackgroundImageFix"/>
<feColorMatrix in="SourceAlpha" type="matrix" values="0 0 0 0 0 0 0 0 0 0 0 0 0 0 0 0 0 0 127 0" result="hardAlpha"/>
<feOffset/>
<feGaussianBlur stdDeviation="10"/>
<feComposite in2="hardAlpha" operator="out"/>
<feColorMatrix type="matrix" values="0 0 0 0 1 0 0 0 0 1 0 0 0 0 1 0 0 0 0.41 0"/>
<feBlend mode="normal" in2="BackgroundImageFix" result="effect1_dropShadow_15_264"/>
<feBlend mode="normal" in="SourceGraphic" in2="effect1_dropShadow_15_264" result="shape"/>
</filter>
<clipPath id="clip0_15_264">
<rect width="40" height="40" fill="white" transform="translate(0 4)"/>
</clipPath>
</defs>
</svg>
