<svg width="42" height="42" viewBox="0 0 72 72" fill="none" xmlns="http://www.w3.org/2000/svg">
<path d="M15.75 10.4883H56.2431C57.4857 10.4883 58.4931 9.48094 58.4931 8.23828C58.4931 7.09921 57.6465 6.15781 56.5482 6.00883L56.2431 5.98828H15.75C14.5074 5.98828 13.5 6.99565 13.5 8.23828C13.5 9.37738 14.3465 10.3188 15.4447 10.4678L15.75 10.4883ZM35.6502 65.9814L36 66.0015C37.5384 66.0015 38.8065 64.8435 38.9799 63.3513L39 63.0015V25.2315L48.8823 35.1099C49.9638 36.1911 51.6654 36.2742 52.8423 35.3589L53.1249 35.1093C54.2061 34.0278 54.2892 32.3262 53.3739 31.1493L53.1243 30.8667L38.1315 15.8769C37.0506 14.7962 35.3499 14.7126 34.173 15.6264L33.8904 15.8757L18.8801 30.8655C17.7078 32.0364 17.7064 33.9357 18.8772 35.1081C19.9579 36.1902 21.6596 36.2748 22.8371 35.3604L23.1199 35.1111L33 25.2465V63.0015C33 64.5399 34.158 65.808 35.6502 65.9814Z" fill="#878787"/>
</svg>
